<svg xmlns="http://www.w3.org/2000/svg" viewBox="0 0 130.98 102.68"><defs><style>.cls-1{fill:#00748a;}</style></defs><g id="Layer_2" data-name="Layer 2"><g id="Layer_1-2" data-name="Layer 1"><path class="cls-1" d="M11.49,126.59V24.66H25.86L58.53,76.23a287.86,287.86,0,0,1,18.3,33.12l.3-.16c-1.21-13.61-1.51-26-1.51-41.89V24.66H88V126.59H74.71L42.34,74.87a325.34,325.34,0,0,1-19.05-34l-.45.15c.75,12.85,1.05,25.1,1.05,42v43.56Z" transform="translate(-11.49 -23.9)"/><path class="cls-1" d="M76.08,26a137.25,137.25,0,0,1,25.26-2.12c14.07,0,23.14,2.57,29.49,8.32,5.14,4.54,8,11.49,8,19.36,0,13.46-8.47,22.38-19.21,26V78c7.86,2.72,12.55,10,15,20.57,3.33,14.21,5.75,24,7.87,28H128.86c-1.66-2.88-3.93-11.65-6.8-24.35-3-14.07-8.47-19.36-20.42-19.81H89.24v44.16H76.08ZM89.24,72.45H102.7c14.07,0,23-7.72,23-19.36,0-13.16-9.53-18.91-23.44-19.06a54.47,54.47,0,0,0-13,1.21Z" transform="translate(-11.49 -23.9)"/></g></g></svg>